<?xml version="1.0" encoding="utf-8"?>
<!-- Generator: Adobe Illustrator 15.0.2, SVG Export Plug-In . SVG Version: 6.00 Build 0)  -->
<!DOCTYPE svg PUBLIC "-//W3C//DTD SVG 1.1//EN" "http://www.w3.org/Graphics/SVG/1.1/DTD/svg11.dtd">
<svg version="1.1" id="Layer_1" xmlns="http://www.w3.org/2000/svg" xmlns:xlink="http://www.w3.org/1999/xlink" x="0px" y="0px"
	 width="100px" height="30px" viewBox="0 0 100 30" enable-background="new 0 0 100 30" xml:space="preserve">
<rect x="0" fill="#C23128" width="100" height="30"/>
<g>
	<g>
		<path fill="#FFFFFF" d="M21.12,21.902c-0.005-0.002-0.687-0.239-0.687-0.239c-0.363-0.168-1.584-0.777-2.162-1.599
			c-0.529-0.749-0.46-1.696-0.307-2.359c0.157-0.699,0.603-1.083,1.313-1.653c0.639-0.512,1.286-0.727,1.929-0.637
			c0.618,0.086,1.123,0.37,1.59,0.895c0.451,0.51,0.503,1.315,0.529,1.749c0.001,0.01,0.004,0.088,0.004,0.088
			c0.025,0.41-0.208,1.207-0.519,1.553c-0.262,0.292-0.478,0.448-0.93,0.493c-0.462,0.043-1.032-0.201-1.453-0.619
			c-0.5-0.5-0.606-1.177-0.611-1.207c0-0.006-0.093-0.609,0.531-0.933c0.209-0.109,0.373-0.126,0.49-0.048l0.119,0.158
			c0.005,0.011,0.102,0.216-0.171,0.518c-0.388,0.428,0.074,0.977,0.17,1.081c0.161,0.175,0.354,0.388,0.821,0.281
			c0.625-0.141,0.778-1.159,0.793-1.274c0.054-0.425-0.111-1.193-0.652-1.571c-0.46-0.317-0.898-0.352-1.188-0.374l-0.13-0.012
			c-0.298-0.031-1.097,0.365-1.294,0.572c-0.073,0.08-0.145,0.185-0.13,0.241c0.07,0.042,0.135,0.003,0.234-0.114
			c0.155-0.18,0.591-0.315,0.909-0.414c0.007-0.002,0.283-0.095,0.283-0.095c0.237-0.097,0.76,0.136,1.146,0.393
			c0.352,0.233,0.38,0.428,0.43,0.781c0.001,0.003,0.038,0.243,0.038,0.243c0.085,0.479-0.229,0.973-0.525,1.252
			c-0.096,0.091-0.199,0.127-0.308,0.109c-0.142-0.026-0.26-0.14-0.309-0.236C21,18.78,20.99,18.506,21.207,18.212
			c0.185-0.25,0.211-0.684-0.101-1.03c-0.093-0.103-0.224-0.156-0.381-0.154c-0.353,0.001-0.8,0.271-1.027,0.531
			c-0.314,0.351-0.268,1.077-0.151,1.24l0.591,0.98c0.15,0.261,0.828,0.779,1.23,0.827c0.405,0.051,0.729-0.008,1.285-0.23
			c0.539-0.215,0.75-0.79,0.904-1.313c0.112-0.372,0.013-0.861-0.104-1.429c0,0.002-0.095-0.479-0.095-0.479
			c-0.13-0.704-0.483-1.178-1.222-1.634c-0.507-0.317-0.79-0.313-1.178-0.309c-0.003,0-0.388-0.002-0.388-0.002
			c-0.612-0.028-1.544,0.545-2.153,1.046c-0.472,0.388-0.636,0.903-0.714,1.152c0,0.003-0.04,0.122-0.04,0.122
			c-0.057,0.125-0.19,0.833-0.125,0.977c-0.003-0.012,0.05,0.254,0.05,0.254c0.056,0.35,0.15,0.941,0.401,1.332
			c0.351,0.545,1.154,1.15,1.43,1.311c0.308,0.181,1.082,0.561,1.804,0.705l0.042,0.008l0.044-0.05
			C21.307,22.037,21.282,21.994,21.12,21.902z"/>
		<path fill="#FFFFFF" d="M21.926,14.552c0.071,0.049,0.146,0.091,0.146,0.091c0.161,0.042,0.646,0.4,0.907,0.593
			c0.276,0.201,0.631,0.618,0.801,1.101c0.201,0.575,0.348,1.063,0.413,1.57l0.021,0.394l-0.077,0.938
			c-0.045,0.263-0.345,0.872-0.473,1.06c-0.195,0.284-0.939,1.185-2.331,0.854c-1.31-0.313-1.818-0.977-2.063-1.295
			c0.005,0.018-0.085-0.105-0.085-0.105c-0.156-0.189-0.296-0.746-0.364-1.013c0,0-0.05-0.185-0.05-0.185
			c-0.005-0.012-0.008-0.033-0.008-0.06c0-0.168,0.085-0.583,0.165-0.829c0.001-0.003,0.013-0.037,0.056-0.157
			c0.031-0.085,0.057-0.152,0.057-0.201c0-0.022-0.007-0.041-0.019-0.056c-0.028-0.029-0.08-0.031-0.16-0.007
			c-0.295,0.091-0.409,1.257-0.394,1.627c0.019,0.443,0.517,1.272,1.199,1.752c0.679,0.478,2.152,0.878,2.394,0.865
			c0.272-0.014,0.863-0.169,1.01-0.307c-0.006,0.004,0.321-0.191,0.322-0.191l0.101-0.042c0.212-0.088,0.42-0.332,0.652-0.764
			c0.182-0.34,0.318-1.341,0.318-1.824c0-0.001-0.007-0.142-0.007-0.142c-0.073-0.671-0.359-2.014-0.962-2.797
			c-0.537-0.698-1.646-0.989-1.693-1.001c-0.005,0.008,0.008,0.024,0.02,0.037c-0.01-0.002-0.027-0.007-0.027-0.007
			C21.831,14.493,21.876,14.524,21.926,14.552z"/>
		<path fill="#FFFFFF" d="M14.778,8.249c-0.001,0,0.61-0.292,0.61-0.292c0.416-0.157,1.714-0.588,2.698-0.419
			c0.902,0.156,1.523,0.875,1.885,1.449c0.383,0.609,0.341,1.196,0.24,2.101c-0.089,0.811-0.396,1.421-0.914,1.813
			c-0.501,0.376-1.059,0.532-1.755,0.491c-0.691-0.042-1.296-0.583-1.619-0.873l-0.056-0.05c-0.31-0.27-0.707-0.997-0.733-1.462
			c-0.021-0.394,0.021-0.656,0.309-1.005c0.294-0.358,0.869-0.591,1.466-0.593c0.663,0,1.187,0.352,1.285,0.422
			c0.082,0.065,0.478,0.418,0.286,1.036c-0.119,0.37-0.314,0.398-0.42,0.382l-0.088-0.027c-0.017-0.01-0.228-0.085-0.249-0.489
			c-0.028-0.569-0.736-0.636-0.879-0.645c-0.258-0.01-0.532-0.02-0.785,0.381c-0.279,0.443,0.082,1.126,0.34,1.459
			c0.262,0.341,0.923,0.768,1.572,0.651c0.542-0.098,0.875-0.379,1.097-0.565c0.007-0.006,0.107-0.092,0.107-0.092
			c0.234-0.19,0.518-1.035,0.51-1.32c-0.002-0.103-0.026-0.234-0.079-0.263c-0.078,0.019-0.095,0.096-0.082,0.248
			c0.016,0.24-0.206,0.659-0.354,0.935c0,0.002-0.131,0.266-0.131,0.266c-0.1,0.236-0.632,0.441-1.088,0.533
			c-0.414,0.084-0.571-0.034-0.855-0.248c-0.002-0.002-0.2-0.147-0.2-0.147c-0.398-0.277-0.525-0.85-0.514-1.256
			c0.004-0.134,0.05-0.23,0.141-0.295c0.117-0.082,0.281-0.084,0.385-0.051c0.156,0.05,0.357,0.236,0.41,0.597
			c0.045,0.308,0.334,0.633,0.799,0.659c0.137,0.008,0.265-0.046,0.377-0.16c0.25-0.249,0.376-0.757,0.353-1.102
			c-0.028-0.478-0.594-0.956-0.771-0.984c0.003,0-1.11-0.276-1.11-0.276c-0.29-0.078-1.137,0.036-1.456,0.286
			c-0.319,0.247-0.507,0.517-0.746,1.073c-0.228,0.532,0.03,1.088,0.289,1.566c0.183,0.341,0.6,0.617,1.083,0.934
			c0.006,0.003,0.407,0.274,0.407,0.274c0.588,0.405,1.173,0.49,2.021,0.293c0.581-0.136,0.776-0.336,1.047-0.614
			c0.005-0.003,0.28-0.273,0.28-0.273c0.456-0.417,0.707-1.48,0.782-2.263c0.061-0.621-0.192-1.096-0.313-1.325
			c0,0.001-0.053-0.109-0.053-0.109c-0.05-0.128-0.456-0.722-0.603-0.781c0.004,0.002-0.215-0.143-0.215-0.143
			c-0.301-0.216-0.783-0.563-1.228-0.658c-0.629-0.138-1.626,0.001-1.938,0.083c-0.346,0.091-1.165,0.371-1.775,0.777l-0.034,0.022
			l0.003,0.068C14.57,8.313,14.73,8.265,14.778,8.249z"/>
		<path fill="#FFFFFF" d="M15.013,13.216c0.524,0.422,1.673,1.17,2.657,1.297c0.886,0.116,1.899-0.484,1.908-0.49
			c-0.002-0.01-0.023-0.011-0.041-0.014c0.009-0.005,0.024-0.013,0.025-0.014c-0.055,0-0.108,0.007-0.164,0.024
			c-0.085,0.015-0.17,0.039-0.17,0.039c-0.142,0.085-0.738,0.174-1.059,0.223c-0.339,0.052-0.887,0.007-1.345-0.213
			c-0.542-0.26-0.988-0.499-1.401-0.816c-0.361-0.278-0.748-0.765-0.903-0.982c-0.153-0.218-0.373-0.863-0.416-1.085
			c-0.064-0.339-0.175-1.503,1.044-2.252c1.15-0.705,1.98-0.594,2.378-0.542c0.001,0,0.13,0.014,0.13,0.014
			c0.242,0.022,0.716,0.305,0.971,0.457c0.005,0.003,0.169,0.097,0.169,0.097c0.089,0.042,0.391,0.485,0.521,0.745l0.069,0.146
			c0.056,0.123,0.091,0.204,0.153,0.207c0.051,0.002,0.089-0.055,0.118-0.109c0.136-0.253-0.555-1.139-0.871-1.428
			c-0.329-0.3-1.269-0.534-2.089-0.392c-0.814,0.142-2.142,0.9-2.304,1.081c-0.182,0.204-0.489,0.73-0.496,0.931
			c0.001-0.007-0.094,0.365-0.094,0.365c-0.001,0-0.042,0.098-0.042,0.098c-0.034,0.083-0.05,0.182-0.05,0.297
			c0,0.185,0.043,0.417,0.131,0.705C13.971,12.026,14.744,12.999,15.013,13.216z"/>
		<path fill="#FFFFFF" d="M9.887,14.881c0.108-0.025,0.64-0.305,0.658-0.32c0.364-0.13,1.662-0.559,2.645-0.388
			c0.905,0.156,1.525,0.874,1.886,1.449c0.382,0.605,0.34,1.192,0.241,2.1c-0.09,0.812-0.398,1.422-0.914,1.812
			c-0.497,0.377-1.055,0.534-1.755,0.492c-0.688-0.042-1.294-0.582-1.62-0.872l-0.056-0.05c-0.308-0.271-0.705-1-0.732-1.464
			c-0.021-0.392,0.019-0.655,0.31-1.005c0.292-0.358,0.869-0.59,1.465-0.591c0.704-0.002,1.26,0.403,1.284,0.421
			c0.005,0.003,0.496,0.369,0.286,1.035c-0.062,0.198-0.152,0.321-0.269,0.367c-0.125,0.05-0.238-0.012-0.238-0.013
			c-0.011-0.004-0.228-0.085-0.249-0.488c-0.031-0.627-0.876-0.644-0.886-0.644c-0.249-0.011-0.525-0.023-0.779,0.381
			c-0.279,0.443,0.084,1.127,0.341,1.461c0.246,0.314,0.888,0.77,1.572,0.649c0.544-0.098,0.878-0.382,1.098-0.569
			c0.009-0.007,0.107-0.089,0.107-0.089c0.234-0.192,0.519-1.035,0.51-1.321c-0.002-0.102-0.025-0.231-0.078-0.262
			c-0.078,0.022-0.095,0.097-0.085,0.247c0.018,0.243-0.204,0.661-0.351,0.939c-0.001,0-0.134,0.263-0.134,0.263
			c-0.097,0.236-0.631,0.441-1.085,0.533c-0.416,0.084-0.583-0.042-0.86-0.25c-0.001-0.001-0.196-0.145-0.196-0.145
			c-0.397-0.277-0.525-0.851-0.514-1.257c0.004-0.131,0.05-0.23,0.138-0.292c0.119-0.085,0.285-0.087,0.387-0.054
			c0.157,0.051,0.358,0.239,0.41,0.597c0.046,0.309,0.336,0.633,0.801,0.659c0.136,0.008,0.263-0.046,0.376-0.159
			c0.249-0.248,0.375-0.756,0.354-1.101c-0.029-0.472-0.576-0.953-0.772-0.987l-1.112-0.275c-0.29-0.078-1.137,0.035-1.456,0.283
			c-0.321,0.251-0.508,0.522-0.745,1.075c-0.23,0.535,0.028,1.09,0.288,1.567c0.185,0.345,0.603,0.62,1.085,0.938l0.405,0.27
			c0.589,0.405,1.175,0.492,2.019,0.293c0.587-0.137,0.783-0.338,1.055-0.62l0.272-0.268c0.456-0.415,0.706-1.479,0.783-2.263
			c0.06-0.623-0.201-1.114-0.314-1.323c0.002,0-0.053-0.112-0.053-0.112c-0.049-0.128-0.456-0.722-0.602-0.778
			c0.005,0.002-0.215-0.144-0.215-0.144c-0.266-0.195-0.764-0.557-1.227-0.659c-0.631-0.136-1.626,0.002-1.937,0.082
			c-0.351,0.094-1.172,0.377-1.776,0.779l-0.035,0.024l0.004,0.067C9.682,14.953,9.886,14.882,9.887,14.881z"/>
		<path fill="#FFFFFF" d="M8.917,17.128c-0.001,0.002-0.01,0.026-0.046,0.11c-0.034,0.082-0.051,0.18-0.051,0.297
			c0,0.184,0.042,0.416,0.129,0.704c0.129,0.425,0.903,1.396,1.172,1.611c0.525,0.421,1.676,1.169,2.655,1.297
			c0.901,0.118,1.899-0.484,1.908-0.49c-0.002-0.009-0.023-0.011-0.041-0.013c0.009-0.004,0.023-0.014,0.025-0.014
			c-0.055,0-0.109,0.007-0.165,0.023c-0.084,0.016-0.167,0.04-0.167,0.04c-0.141,0.084-0.74,0.174-1.062,0.222
			c-0.339,0.053-0.887,0.005-1.343-0.213c-0.545-0.262-0.993-0.502-1.403-0.817c-0.38-0.295-0.779-0.809-0.901-0.982
			c-0.154-0.219-0.373-0.863-0.416-1.085c-0.063-0.337-0.177-1.5,1.045-2.25c1.148-0.707,1.978-0.597,2.377-0.544
			c0,0,0.13,0.016,0.13,0.016c0.252,0.022,0.76,0.329,0.977,0.461c0.001,0,0.164,0.093,0.164,0.093
			c0.088,0.04,0.384,0.476,0.521,0.744l0.069,0.147c0.054,0.118,0.093,0.204,0.154,0.206c0.05,0.002,0.088-0.052,0.118-0.107
			c0.144-0.272-0.598-1.178-0.871-1.43c-0.328-0.299-1.267-0.534-2.09-0.39c-0.818,0.142-2.143,0.899-2.303,1.081
			c-0.182,0.202-0.49,0.728-0.497,0.929C9.007,16.768,8.923,17.104,8.917,17.128z"/>
		<path fill="#FFFFFF" d="M12.944,11.456c0.117,0.877,1.396,2.147,1.786,2.516c0.613,0.582,1.145,1.126,1.433,1.893
			c0.287,0.76,0.292,2.142,0.144,2.605c-0.144,0.448-0.506,1.008-0.804,1.363c-0.303,0.365-0.276,0.421-0.263,0.445
			c0.009-0.008,0.019-0.019,0.028-0.026c0,0.003,0,0.011,0,0.013c0.046-0.048,0.094-0.1,0.142-0.152
			c0.525-0.521,1.146-1.252,1.247-2.078c0.103-0.857-0.083-1.959-0.474-2.806c-0.272-0.589-0.947-1.253-1.542-1.84
			c-0.002-0.001-0.695-0.705-0.695-0.705c-0.798-0.873-0.801-1.717-0.732-2.144c0.047-0.294,0.121-0.718,0.248-0.986
			c0.221-0.468,0.21-0.478,0.193-0.495c-0.007,0.005-0.014,0.017-0.021,0.023v0c-0.002,0.001-0.004,0.004-0.007,0.007
			C13.233,9.419,12.842,10.685,12.944,11.456z"/>
		<path fill="#FFFFFF" d="M17.131,18.861c0,0.001-0.005,0.011-0.007,0.017c-0.049,0.032-0.09,0.121-0.09,0.121
			c-0.297,0.599-0.632,1.279-1.473,1.806c-1.06,0.667-2.167,1.004-3.202,0.977c-0.739-0.02-2.221-0.909-2.629-1.397l-0.168-0.194
			c-0.426-0.49-1.057-1.217-1.221-2.28c0-0.001-0.024-0.317-0.024-0.317c0-0.636,0.256-1.358,0.762-2.144l0.033-0.056
			c-0.015,0.004-0.035,0.02-0.053,0.029l0.026-0.045c-0.046,0.02-0.109,0.081-0.178,0.16c-0.315,0.31-0.742,1.067-0.814,1.576
			l-0.03,0.413c0,0.599,0.191,1.208,0.585,1.865c1.05,1.757,3.237,2.986,4.678,2.629c2.391-0.591,3.645-1.622,3.834-3.155
			c-0.012-0.003-0.024,0.004-0.035,0.011C17.129,18.872,17.131,18.866,17.131,18.861z"/>
		<path fill="#FFFFFF" d="M23.802,14.526c-1.13-1.102-2.99-1.006-3.554-0.886l-0.053,0.012l0.055,0.101
			c0.032,0.037,0.09,0.053,0.165,0.051c1.517-0.06,3.051,0.136,3.986,1.943c1.087,2.097,0.66,4.205,0.204,4.816
			c-0.13,0.172-0.491,0.607-1.039,0.917c-0.312,0.176-0.632,0.261-0.891,0.329c-0.019,0.005-0.563,0.165-0.563,0.165
			c-0.006,0.002-0.135,0.071-0.135,0.071c0.021,0,0.05-0.002,0.073-0.003l-0.059,0.031c0.107-0.011,0.304-0.035,0.545-0.086
			c1.012-0.175,2.653-0.808,2.759-2.731C25.422,16.988,25.016,15.706,23.802,14.526z"/>
		<path fill="#FFFFFF" d="M21.081,14.377c-0.722-0.03-1.579,0.061-2.1,0.446l-0.028,0.02l-0.003,0.071
			c0.026,0.029,0.066,0.025,0.124,0.01c0.003-0.001,0.267-0.111,0.267-0.111c0.225-0.106,0.528-0.25,0.939-0.295
			c0.002,0,0.378-0.019,0.378-0.019c0.002,0,0.509-0.039,0.509-0.039c0.145-0.037,0.152-0.057,0.157-0.068
			c-0.015,0-0.029,0-0.043-0.002c0.011-0.005,0.014-0.009,0.014-0.009C21.226,14.377,21.154,14.377,21.081,14.377z"/>
		<path fill="#FFFFFF" d="M18.629,15.25l0.194-0.169c0.003-0.096-0.041-0.114-0.063-0.114c-0.113,0.063-0.962,0.582-1.278,1.014
			v0.001c-0.299,0.414-0.406,1.141-0.406,1.684c0,0.001,0.018,0.535,0.018,0.535c0.08,0.026,0.116,0.001,0.131-0.043
			c0.002,0.021,0.003,0.021,0.003-0.132c0-0.341,0.042-1.499,0.601-2.064L18.629,15.25z"/>
		<path fill="#FFFFFF" d="M21.102,12.199c0.183-0.214,0.336-0.608,0.453-1.173c0.165-0.791-0.148-1.639-0.214-1.8
			c-0.069-0.173-0.096-0.2-0.149-0.198l-0.019,0l-0.029,0.034c-0.015,0.031-0.005,0.071,0.03,0.135
			c0.576,1.421-0.21,2.935-0.22,2.949c-0.022,0.045-0.025,0.102,0.007,0.123C21.01,12.304,21.08,12.225,21.102,12.199z"/>
	</g>
	<path fill="#FFFFFF" d="M35.543,13.958h-0.029c0.1-0.549,0.144-1.184,0.144-1.587h-3.854v-0.576c0-1.126,0.418-1.632,1.343-1.632
		c0.317,0,0.665,0.044,0.981,0.145l0.114-1.273c-0.375-0.085-0.764-0.128-1.168-0.128c-1.862,0-2.8,0.952-2.8,2.916v0.548h-1.371
		v1.199h1.371v5.975h1.529V13.57h2.382v5.975h1.544V16.63c0-2.15,0.694-3.147,2.121-2.886l0.072-1.518
		C36.581,12.098,35.86,12.992,35.543,13.958z"/>
	<path fill="#FFFFFF" d="M42.196,19.545c0-0.461,0.014-0.938,0.072-1.328l-0.016-0.014c-0.345,0.851-1.239,1.485-2.38,1.485
		c-1.229,0-2.007-0.692-2.007-1.832c0-1.645,1.643-2.6,4.229-2.6v-0.461c0-0.893-0.375-1.357-1.503-1.357
		c-0.661,0-1.529,0.203-2.135,0.579l-0.145-1.315c0.707-0.273,1.601-0.477,2.524-0.477c2.196,0,2.801,0.955,2.801,2.427v2.93
		c0,0.62,0.014,1.355,0.044,1.962H42.196z M42.095,16.297c-2.252,0-2.742,0.68-2.742,1.301c0,0.534,0.375,0.88,0.98,0.88
		c1.053,0,1.762-1.011,1.762-2.036V16.297z"/>
	<path fill="#FFFFFF" d="M47.579,20.237c-0.836,2.237-1.545,2.929-3.162,2.929c-0.289,0-0.677-0.042-0.965-0.101l0.114-1.355
		c0.319,0.114,0.606,0.157,0.94,0.157c0.72,0,1.124-0.331,1.571-1.559l0.288-0.764l-2.684-7.174h1.73l1.172,3.276
		c0.23,0.636,0.402,1.27,0.562,1.875h0.015c0.143-0.575,0.447-1.5,0.708-2.234l1.023-2.917h1.66L47.579,20.237z"/>
	<path fill="#FFFFFF" d="M55.327,19.545v-4.618c0-0.896-0.245-1.416-1.067-1.416c-1.084,0-1.877,1.142-1.877,2.571v3.463H50.84
		v-7.174h1.472c0,0.375-0.03,0.996-0.101,1.401l0.014,0.014c0.419-0.925,1.284-1.56,2.497-1.56c1.63,0,2.136,1.027,2.136,2.296
		v5.022H55.327z"/>
	<path fill="#FFFFFF" d="M63.611,16.051h-4.573c-0.044,1.66,0.692,2.412,2.12,2.412c0.736,0,1.502-0.174,2.092-0.463l0.146,1.228
		c-0.723,0.302-1.603,0.461-2.484,0.461c-2.235,0-3.462-1.154-3.462-3.68c0-2.165,1.182-3.782,3.276-3.782
		c2.05,0,2.928,1.402,2.928,3.104C63.654,15.533,63.641,15.778,63.611,16.051z M60.668,13.367c-0.866,0-1.473,0.635-1.602,1.604
		h3.044C62.138,13.987,61.577,13.367,60.668,13.367z"/>
	<path fill="#FFFFFF" d="M72.219,19.545h-1.082l-1.704-4.965c-0.146-0.434-0.274-0.866-0.39-1.314H69.03
		c-0.161,0.606-0.347,1.198-0.536,1.806l-1.413,4.473h-1.097l-2.238-7.174h1.038l1.331,4.618c0.171,0.636,0.359,1.243,0.474,1.677
		h0.016c0.129-0.534,0.304-1.128,0.477-1.677l1.486-4.618h1.098l1.499,4.606c0.305,0.922,0.404,1.282,0.521,1.702h0.014
		c0.132-0.519,0.275-0.953,0.491-1.674l1.4-4.634h0.982L72.219,19.545z"/>
	<path fill="#FFFFFF" d="M77.468,19.66c-1.904,0-3.118-1.169-3.118-3.68c0-2.007,1.214-3.726,3.365-3.726
		c1.673,0,3.132,0.926,3.132,3.596C80.846,17.942,79.575,19.66,77.468,19.66z M77.612,12.992c-1.183,0-2.309,0.911-2.309,2.916
		c0,1.903,0.837,3.002,2.322,3.002c1.184,0,2.281-0.911,2.281-3.016C79.907,14.089,79.127,12.992,77.612,12.992z"/>
	<path fill="#FFFFFF" d="M84.924,13.137c-1.631-0.259-2.408,1.054-2.408,3.55v2.858h-0.91v-7.174h0.922
		c0,0.506-0.056,1.241-0.188,1.876l0.03,0.013c0.274-1.066,1.024-2.191,2.598-2.006L84.924,13.137z"/>
	<path fill="#FFFFFF" d="M89.458,19.545l-2.959-3.812v3.812h-0.908V9.008h0.908v6.626l2.828-3.263h1.098l-2.916,3.263l3.162,3.911
		H89.458z"/>
</g>
</svg>
