<?xml version="1.0" standalone="no"?>
<!DOCTYPE svg PUBLIC "-//W3C//DTD SVG 1.1//EN" "http://www.w3.org/Graphics/SVG/1.1/DTD/svg11.dtd">
<svg width="100%" height="100%" viewBox="0 0 180 53" version="1.1" xmlns="http://www.w3.org/2000/svg" xmlns:xlink="http://www.w3.org/1999/xlink" xml:space="preserve" style="fill-rule:evenodd;clip-rule:evenodd;stroke-linejoin:round;stroke-miterlimit:1.41421;">
    <g id="Imported-Layers-Copy-2">
        <path id="Fill-3" d="M109.032,0.867L5.948,3.474C2.882,3.474 0.41,5.871 0.41,8.819L0.41,36.174C0.41,39.121 2.882,41.519 5.923,41.519L10.238,41.519L13.945,46.654L17.662,41.506L108.399,43.78L108.399,17.068C108.399,13.628 111.093,10.789 114.543,10.426L114.543,6.212C114.543,3.265 112.071,0.867 109.032,0.867ZM12.579,25.227L10.282,25.215L10.282,34.602L7.777,34.544L7.776,10.167L12.519,10.058C17.082,9.952 18.332,12.239 18.332,17.507C18.332,22.775 17.082,25.251 12.579,25.227ZM30.065,33.858C29.194,34.73 27.77,35.278 25.739,35.23C23.815,35.185 22.449,34.612 21.572,33.714C20.307,32.408 20.097,30.25 20.097,27.556L20.096,9.883L22.72,9.822L22.721,27.48C22.721,30.796 23.268,32.396 25.801,32.442C28.326,32.489 28.883,30.925 28.883,27.538L28.883,9.68L31.531,9.618L31.531,27.666C31.531,30.382 31.375,32.579 30.065,33.858ZM43.558,35.369L38.024,19.415L36.999,16.401L37,35.218L34.394,35.158L34.394,9.552L37.287,9.485L42.384,24.23L43.525,27.641L43.525,9.341L46.151,9.28L46.152,35.429L43.558,35.369ZM60.942,11.871L55.949,11.962L55.95,35.655L52.927,35.585L52.927,12.016L48.07,12.104L48.07,9.236L60.942,8.938L60.942,11.871ZM62.964,35.817L62.962,8.891L73.974,8.637L73.974,11.636L66.021,11.78L66.022,20.545L73.611,20.522L73.611,23.519L66.022,23.505L66.022,32.965L73.975,33.109L73.975,36.07L62.964,35.817ZM90.007,36.44L86.618,36.362L83.228,25.004C83.078,25.041 82.929,25.041 82.817,25.04L79.988,25.027L79.989,36.209L76.819,36.136L76.818,8.571L82.778,8.433C88.516,8.301 90.236,10.733 90.237,16.439C90.237,20.509 89.28,23.17 86.277,24.375L90.007,36.44ZM97.606,36.808C94.714,36.74 92.776,36.16 91.388,35.481L92.775,32.684C94.092,33.357 95.532,33.69 97.526,33.727C99.574,33.765 101.158,32.787 101.158,30.541C101.158,28.799 100.325,27.476 96.703,22.603C93.316,18.129 92.197,16.649 92.195,13.94C92.195,10.658 94.053,7.905 98.783,7.794C101.078,7.739 102.51,7.938 104.15,8.484L103.029,11.538C101.833,11.171 100.483,10.925 98.863,10.954C96.625,10.996 95.491,12.168 95.491,13.932C95.491,15.428 95.921,16.076 99.298,20.558C103.59,26.181 104.552,27.589 104.552,30.664C104.552,34.401 102.192,36.915 97.606,36.808Z" style="fill:rgb(46,165,221);"/>
        <path id="Fill-6" d="M174.381,14.161L115.26,12.281C112.57,12.282 110.357,14.429 110.357,17.068L110.357,45.692C110.357,48.331 112.57,50.478 115.292,50.478L163.708,48.636L167.071,53.046L170.42,48.655L174.381,48.655C177.102,48.655 179.316,46.509 179.316,43.87L179.316,18.946C179.316,16.308 177.102,14.161 174.381,14.161ZM126.055,44.867C123.738,44.928 122.07,44.318 120.914,43.292C118.814,41.294 118.512,37.46 118.512,31.318C118.511,25.321 118.776,21.487 120.838,19.452C121.957,18.315 123.663,17.67 126.054,17.734C127.95,17.784 129.184,18.068 130.483,18.602L129.401,21.403C128.496,21.062 127.369,20.824 126.201,20.8C122.329,20.72 121.771,23.288 121.771,31.39C121.772,39.385 122.33,41.989 126.201,41.909C127.553,41.881 128.497,41.611 129.51,41.16L130.627,43.889C129.366,44.421 128.061,44.814 126.055,44.867ZM132.775,44.512L132.774,18.161L135.857,18.242L135.858,41.604L143.32,41.452L143.32,44.237L132.775,44.512ZM155.295,42.736C154.382,43.642 152.874,44.261 150.695,44.319C148.596,44.375 147.085,43.863 146.107,42.987C144.682,41.701 144.445,39.483 144.445,36.704L144.444,18.466L147.387,18.543L147.388,36.568C147.388,39.953 147.992,41.563 150.761,41.505C153.466,41.449 154.055,39.87 154.055,36.498L154.054,18.718L156.82,18.79L156.821,36.57C156.821,39.245 156.659,41.416 155.295,42.736ZM165.428,43.661L159.745,43.809L159.745,18.866L165.272,19.011C169.572,19.123 170.826,21.293 170.826,25.272C170.826,28.033 170.368,30.038 168.589,30.76C170.642,31.42 171.1,33.688 171.1,36.908C171.1,41.18 169.511,43.555 165.428,43.661Z" style="fill:rgb(46,165,221);"/>
        <path id="Fill-1" d="M12.519,12.713L10.281,12.754L10.282,22.571L12.549,22.571C15.13,22.573 15.838,21.27 15.838,17.563C15.838,13.855 15.13,12.666 12.519,12.713" style="fill:rgb(46,165,221);"/>
        <path id="Fill-2" d="M82.741,11.44L79.987,11.49L79.988,22.073L82.779,22.072C86.163,22.07 86.996,20.518 86.996,16.659C86.996,12.763 86.163,11.378 82.741,11.44" style="fill:rgb(46,165,221);"/>
        <path id="Fill-4" d="M165.241,32.386L162.414,32.392L162.415,41.195L165.335,41.135C167.757,41.085 168.528,39.515 168.528,36.674C168.527,33.271 167.509,32.381 165.241,32.386" style="fill:rgb(46,165,221);"/>
        <path id="Fill-5" d="M168.25,25.634C168.25,23.022 167.571,21.653 165.178,21.604L162.414,21.547L162.414,29.782L165.209,29.79C167.88,29.799 168.25,27.916 168.25,25.634" style="fill:rgb(46,165,221);"/>
    </g>
</svg>
